<?xml version="1.0" encoding="utf-8"?><svg version="1.1" id="Layer_1" xmlns="http://www.w3.org/2000/svg" xmlns:xlink="http://www.w3.org/1999/xlink" x="0px" y="0px" viewBox="0 0 122.88 122.77" style="enable-background:new 0 0 122.88 122.77" xml:space="preserve"><style type="text/css"><![CDATA[
	.st0{fill-rule:evenodd;clip-rule:evenodd;}
]]></style><g><path class="st0" d="M92.45,8.98c-1.35-0.94-2.88-1.35-4.44-1.04c-1.56,0.31-2.88,1.15-3.82,2.46l-5.27,7.43 c-1.87-0.83-3.82-1.46-5.9-1.98c-2.08-0.52-4.03-0.94-6.11-1.25l-1.67-9.72C64.94,3.21,64.1,2,62.88,1.06 c-1.35-0.94-2.78-1.25-4.44-0.94L46.26,2.31c-1.56,0.31-2.78,1.04-3.82,2.39c-0.94,1.35-1.35,2.78-1.04,4.44l1.56,8.88 c-1.98,0.83-3.82,1.77-5.59,2.88c-1.77,1.04-3.5,2.29-5.07,3.5l-8.26-5.69c-1.35-0.94-2.78-1.35-4.34-1.04 c-1.56,0.31-2.88,1.15-3.82,2.5L8.85,30.21c-0.94,1.35-1.35,2.88-1.04,4.44c0.31,1.67,1.15,2.88,2.5,3.82l7.43,5.27 c-0.83,1.87-1.46,3.82-1.98,5.9c-0.52,2.08-0.94,4.03-1.25,6.11L4.8,57.42c-8.24,1.55-3.58,13.36-2.57,18.98 c0.31,1.56,1.04,2.78,2.36,3.82c1.35,0.94,2.78,1.35,4.44,1.04l8.88-1.56c0.83,1.98,1.77,3.82,2.88,5.59 c1.04,1.77,2.29,3.5,3.5,5.17l-5.69,8.16c-0.94,1.35-1.35,2.78-1.04,4.34c0.31,1.56,1.14,2.88,2.46,3.82l10.13,7.11 c1.35,0.94,2.88,1.25,4.44,0.94c1.56-0.31,2.88-1.04,3.92-2.36l5.28-7.53c1.87,0.83,3.82,1.46,5.9,1.98 c2.08,0.52,4.02,0.94,6.11,1.25l1.67,9.72c0.31,1.67,1.15,2.88,2.36,3.82c1.35,0.94,2.78,1.25,4.44,0.94l12.18-2.19 c1.56-0.31,2.78-1.04,3.82-2.36c0.94-1.35,1.35-2.78,1.04-4.44l-1.56-8.88c1.98-0.83,3.82-1.77,5.59-2.88 c1.77-1.04,3.51-2.26,5.17-3.5l8.16,5.69c1.35,0.94,2.78,1.35,4.44,1.04c1.67-0.31,2.88-1.15,3.82-2.46l7.11-10.14 c0.94-1.35,1.25-2.88,0.94-4.44c-0.31-1.56-1.04-2.88-2.39-3.92L105.05,79c0.83-1.87,1.46-3.82,1.98-5.9 c0.52-2.08,0.94-4.03,1.25-6.11l9.72-1.67c1.67-0.31,2.88-1.15,3.82-2.39c0.94-1.35,1.25-2.78,0.94-4.44l-2.19-12.18 c-0.31-1.56-1.04-2.78-2.36-3.82c-1.35-0.94-2.78-1.35-4.44-1.04l-8.88,1.56c-0.83-1.87-1.77-3.71-2.88-5.59 c-1.04-1.87-2.29-3.5-3.5-5.07l5.69-8.26c0.94-1.35,1.35-2.78,1.04-4.34c-0.31-1.56-1.15-2.88-2.46-3.82L92.73,8.87L92.45,8.98 L92.45,8.98L92.45,8.98L92.45,8.98z M49.12,52.09l8.67,8.25l14.93-15.16c1.48-1.5,2.4-2.71,4.23-0.83l5.91,6.05 c1.95,1.92,1.84,3.04,0.01,4.82l-21.7,21.3c-3.86,3.78-3.18,4.01-7.1,0.13L39.17,61.85c-0.81-0.88-0.73-1.77,0.16-2.66l6.86-7.12 C47.22,51,48.05,51.07,49.12,52.09L49.12,52.09L49.12,52.09L49.12,52.09z M61.44,23.68c20.82,0,37.71,16.88,37.71,37.71 c0,20.82-16.88,37.71-37.71,37.71S23.73,82.21,23.73,61.38C23.73,40.56,40.62,23.68,61.44,23.68L61.44,23.68z"/></g></svg>